<mxfile host="drawio-plugin" modified="2024-03-07T14:06:15.901Z" agent="5.0 (Windows NT 10.0; Win64; x64) AppleWebKit/537.36 (KHTML, like Gecko) Chrome/111.0.0.0 Safari/537.36" version="20.5.3" etag="W0Ins6Jm2e4GoNv1zmSv" type="embed"><diagram id="dKYcm06X2swOTNu0kG4C" name="Page-1"><mxGraphModel dx="596" dy="494" grid="1" gridSize="10" guides="1" tooltips="1" connect="1" arrows="1" fold="1" page="1" pageScale="1" pageWidth="850" pageHeight="1100" math="0" shadow="0"><root><mxCell id="0"/><mxCell id="1" parent="0"/></root></mxGraphModel></diagram></mxfile>